<svg xmlns="http://www.w3.org/2000/svg" xmlns:xlink="http://www.w3.org/1999/xlink" width="512" zoomAndPan="magnify" viewBox="0 0 384 383.999986" height="512" preserveAspectRatio="xMidYMid meet" version="1.0"><defs><clipPath id="aba205c8c0"><path d="M 124.535156 85.855469 L 198.824219 85.855469 L 198.824219 179.660156 L 124.535156 179.660156 Z M 124.535156 85.855469 " clip-rule="nonzero"/></clipPath><clipPath id="b2901c117b"><path d="M 196.085938 112.351562 C 194.441406 106.5 191.976562 101.535156 188.792969 97.632812 C 185.574219 93.660156 181.570312 90.648438 176.914062 88.695312 C 172.359375 86.8125 167.15625 85.855469 161.507812 85.855469 C 155.859375 85.855469 150.691406 86.8125 146.136719 88.730469 C 141.515625 90.683594 137.507812 93.695312 134.292969 97.632812 C 131.105469 101.570312 128.640625 106.5 126.964844 112.351562 C 125.355469 118.105469 124.535156 124.917969 124.535156 132.621094 C 124.535156 140.324219 125.355469 147.136719 127 152.855469 C 128.640625 158.707031 131.105469 163.636719 134.292969 167.539062 C 137.507812 171.511719 141.515625 174.523438 146.136719 176.476562 C 150.691406 178.394531 155.859375 179.351562 161.507812 179.351562 C 167.15625 179.351562 172.359375 178.394531 176.914062 176.476562 C 181.570312 174.523438 185.574219 171.546875 188.792969 167.539062 C 191.976562 163.636719 194.410156 158.707031 196.085938 152.855469 C 197.695312 147.136719 198.550781 140.324219 198.550781 132.621094 C 198.550781 124.917969 197.730469 118.105469 196.085938 112.351562 Z M 161.507812 159.871094 C 158.976562 159.871094 156.75 159.359375 154.902344 158.367188 C 153.019531 157.339844 151.476562 155.902344 150.210938 153.984375 C 148.875 151.964844 147.882812 149.394531 147.199219 146.417969 C 146.480469 143.300781 146.136719 139.671875 146.136719 135.703125 L 146.136719 129.503906 C 146.136719 125.535156 146.480469 121.90625 147.199219 118.789062 C 147.882812 115.777344 148.875 113.242188 150.210938 111.222656 C 151.476562 109.273438 153.019531 107.835938 154.902344 106.839844 C 156.75 105.847656 158.976562 105.335938 161.507812 105.335938 C 164.042969 105.335938 166.265625 105.847656 168.117188 106.839844 C 170 107.867188 171.539062 109.304688 172.839844 111.257812 C 174.175781 113.242188 175.203125 115.777344 175.886719 118.789062 C 176.605469 121.90625 176.949219 125.535156 176.949219 129.503906 L 176.949219 135.703125 C 176.949219 139.671875 176.605469 143.300781 175.886719 146.417969 C 175.203125 149.394531 174.175781 151.964844 172.839844 153.984375 C 171.574219 155.933594 170.03125 157.371094 168.117188 158.398438 C 166.265625 159.394531 164.042969 159.871094 161.507812 159.871094 Z M 161.507812 159.871094 " clip-rule="nonzero"/></clipPath><clipPath id="519dbef7e6"><path d="M 45.070312 85.855469 L 118.652344 85.855469 L 118.652344 179.601562 L 45.070312 179.601562 Z M 45.070312 85.855469 " clip-rule="nonzero"/></clipPath><clipPath id="81352b5d92"><path d="M 67.039062 85.855469 L 45.070312 85.855469 L 45.070312 179.316406 L 67.039062 179.316406 L 67.039062 155.085938 L 76.589844 142.953125 L 93.746094 179.316406 L 118.332031 179.316406 L 91.128906 124.664062 L 118.546875 85.855469 L 93.464844 85.855469 L 67.039062 123.988281 Z M 67.039062 85.855469 " clip-rule="nonzero"/></clipPath><clipPath id="3726b4a2a9"><path d="M 278.152344 85.855469 L 338.222656 85.855469 L 338.222656 106.445312 L 278.152344 106.445312 Z M 278.152344 106.445312 L 299.980469 106.445312 L 299.980469 121.265625 L 278.152344 121.265625 Z M 278.152344 121.265625 L 332.773438 121.265625 L 332.773438 141.855469 L 278.152344 141.855469 Z M 278.152344 141.855469 L 299.980469 141.855469 L 299.980469 158.800781 L 278.152344 158.800781 Z M 278.152344 158.800781 L 338.929688 158.800781 L 338.929688 179.316406 L 278.152344 179.316406 Z M 278.152344 158.800781 " clip-rule="nonzero"/></clipPath><clipPath id="60a5df35f9"><path d="M 204.550781 85.855469 L 272.472656 85.855469 L 272.472656 179.601562 L 204.550781 179.601562 Z M 204.550781 85.855469 " clip-rule="nonzero"/></clipPath><clipPath id="d014f8cb7b"><path d="M 250.609375 176.238281 C 255.246094 174.152344 259.242188 171.003906 262.425781 166.867188 C 265.574219 162.832031 268.015625 157.738281 269.679688 151.761719 C 271.304688 145.886719 272.152344 139.023438 272.152344 131.3125 C 272.152344 123.988281 271.304688 117.480469 269.679688 111.925781 C 268.015625 106.265625 265.539062 101.457031 262.390625 97.601562 C 259.171875 93.707031 255.210938 90.703125 250.539062 88.753906 C 245.976562 86.84375 240.8125 85.855469 235.152344 85.855469 L 204.550781 85.855469 L 204.550781 179.316406 L 235.152344 179.316406 C 240.8125 179.316406 246.011719 178.292969 250.609375 176.238281 Z M 233.628906 106.445312 C 236.140625 106.445312 238.40625 106.867188 240.351562 107.753906 C 242.296875 108.601562 243.890625 109.839844 245.269531 111.539062 C 246.683594 113.269531 247.78125 115.5 248.558594 118.1875 C 249.371094 120.984375 249.761719 124.34375 249.761719 128.164062 L 249.761719 134.496094 C 249.761719 138.777344 249.335938 142.5625 248.523438 145.710938 C 247.746094 148.753906 246.613281 151.265625 245.199219 153.210938 C 243.816406 155.085938 242.191406 156.464844 240.28125 157.382812 C 238.335938 158.304688 236.105469 158.800781 233.664062 158.800781 L 226.378906 158.800781 L 226.378906 106.445312 Z M 233.628906 106.445312 " clip-rule="nonzero"/></clipPath><clipPath id="08f1b6f48f"><path d="M 84.496094 204.683594 L 147.464844 204.683594 L 147.464844 298.429688 L 84.496094 298.429688 Z M 84.496094 204.683594 " clip-rule="nonzero"/></clipPath><clipPath id="80f9ea377f"><path d="M 130.449219 206.839844 C 126.808594 205.425781 122.5625 204.683594 117.820312 204.683594 L 84.496094 204.683594 L 84.496094 298.144531 L 106.324219 298.144531 L 106.324219 264.21875 L 117.820312 264.21875 C 122.171875 264.21875 126.207031 263.476562 129.8125 262.027344 C 133.457031 260.574219 136.605469 258.488281 139.222656 255.835938 C 141.84375 253.183594 143.894531 249.929688 145.308594 246.179688 C 146.6875 242.5 147.394531 238.359375 147.394531 233.902344 C 147.394531 229.800781 146.757812 225.941406 145.519531 222.40625 C 144.246094 218.796875 142.335938 215.613281 139.824219 212.996094 C 137.3125 210.414062 134.128906 208.324219 130.449219 206.839844 Z M 106.324219 225.269531 L 116.160156 225.269531 C 119.128906 225.269531 121.324219 226.015625 122.808594 227.535156 C 124.332031 229.054688 125.039062 231.179688 125.039062 233.972656 C 125.039062 237.226562 124.261719 239.738281 122.738281 241.4375 C 121.289062 243.066406 119.128906 243.84375 116.125 243.84375 L 106.324219 243.84375 Z M 106.324219 225.269531 " clip-rule="nonzero"/></clipPath><clipPath id="6c46da9430"><path d="M 154.855469 204.683594 L 229 204.683594 L 229 298.488281 L 154.855469 298.488281 Z M 154.855469 204.683594 " clip-rule="nonzero"/></clipPath><clipPath id="d3c4e079c0"><path d="M 226.40625 231.179688 C 224.761719 225.328125 222.296875 220.363281 219.113281 216.460938 C 215.898438 212.488281 211.890625 209.476562 207.234375 207.523438 C 202.683594 205.640625 197.476562 204.683594 191.828125 204.683594 C 186.179688 204.683594 181.011719 205.640625 176.457031 207.558594 C 171.835938 209.507812 167.832031 212.523438 164.613281 216.460938 C 161.429688 220.394531 158.964844 225.328125 157.285156 231.179688 C 155.675781 236.933594 154.855469 243.746094 154.855469 251.449219 C 154.855469 259.152344 155.675781 265.964844 157.320312 271.679688 C 158.964844 277.535156 161.429688 282.464844 164.613281 286.367188 C 167.832031 290.339844 171.835938 293.351562 176.457031 295.304688 C 181.011719 297.21875 186.179688 298.179688 191.828125 298.179688 C 197.476562 298.179688 202.683594 297.21875 207.234375 295.304688 C 211.890625 293.351562 215.898438 290.375 219.113281 286.367188 C 222.296875 282.464844 224.730469 277.535156 226.40625 271.679688 C 228.015625 265.964844 228.871094 259.152344 228.871094 251.449219 C 228.871094 243.746094 228.050781 236.933594 226.40625 231.179688 Z M 191.828125 278.699219 C 189.296875 278.699219 187.070312 278.1875 185.222656 277.191406 C 183.339844 276.164062 181.796875 274.726562 180.53125 272.8125 C 179.195312 270.789062 178.203125 268.222656 177.519531 265.246094 C 176.800781 262.128906 176.457031 258.5 176.457031 254.527344 L 176.457031 248.332031 C 176.457031 244.359375 176.800781 240.730469 177.519531 237.617188 C 178.203125 234.605469 179.195312 232.070312 180.53125 230.050781 C 181.796875 228.097656 183.339844 226.660156 185.222656 225.667969 C 187.070312 224.675781 189.296875 224.164062 191.828125 224.164062 C 194.363281 224.164062 196.585938 224.675781 198.4375 225.667969 C 200.320312 226.695312 201.859375 228.132812 203.160156 230.085938 C 204.496094 232.070312 205.523438 234.605469 206.207031 237.617188 C 206.925781 240.730469 207.269531 244.359375 207.269531 248.332031 L 207.269531 254.527344 C 207.269531 258.5 206.925781 262.128906 206.207031 265.246094 C 205.523438 268.222656 204.496094 270.789062 203.160156 272.8125 C 201.894531 274.761719 200.355469 276.199219 198.4375 277.226562 C 196.585938 278.21875 194.363281 278.699219 191.828125 278.699219 Z M 191.828125 278.699219 " clip-rule="nonzero"/></clipPath><clipPath id="0e2369d377"><path d="M 236.371094 204.683594 L 299.707031 204.683594 L 299.707031 298.144531 L 236.371094 298.144531 Z M 236.371094 204.683594 " clip-rule="nonzero"/></clipPath><clipPath id="0fd3e62867"><path d="M 255.988281 296.363281 C 259.6875 297.5625 263.625 298.144531 267.699219 298.144531 C 272.183594 298.144531 276.394531 297.597656 280.160156 296.570312 C 284.097656 295.476562 287.554688 293.695312 290.394531 291.296875 C 293.304688 288.867188 295.566406 285.683594 297.175781 281.847656 C 298.75 278.082031 299.535156 273.53125 299.535156 268.324219 C 299.535156 264.046875 298.886719 260.347656 297.585938 257.300781 C 296.285156 254.253906 294.539062 251.6875 292.414062 249.597656 C 290.328125 247.578125 287.964844 245.867188 285.292969 244.566406 C 282.828125 243.335938 280.261719 242.238281 277.660156 241.3125 C 275.160156 240.425781 272.695312 239.601562 270.265625 238.847656 C 268.074219 238.164062 266.089844 237.378906 264.375 236.453125 C 262.871094 235.664062 261.636719 234.707031 260.746094 233.609375 C 259.996094 232.753906 259.652344 231.625 259.652344 230.1875 C 259.652344 228.441406 260.269531 227.070312 261.570312 225.941406 C 262.972656 224.746094 265.230469 224.128906 268.246094 224.128906 C 270.914062 224.128906 272.933594 224.847656 274.339844 226.351562 C 275.8125 227.929688 276.496094 230.050781 276.496094 232.890625 L 276.496094 236.933594 L 297.996094 236.933594 L 297.996094 232.515625 C 297.996094 227.792969 297.175781 223.613281 295.597656 220.089844 C 293.988281 216.5625 291.800781 213.582031 289.058594 211.289062 C 286.355469 209.03125 283.136719 207.320312 279.542969 206.257812 C 276.050781 205.195312 272.320312 204.683594 268.382812 204.683594 C 264.511719 204.683594 260.714844 205.195312 257.152344 206.257812 C 253.488281 207.320312 250.238281 208.960938 247.429688 211.152344 C 244.589844 213.378906 242.292969 216.183594 240.617188 219.539062 C 238.90625 222.894531 238.050781 226.867188 238.050781 231.316406 C 238.050781 234.808594 238.460938 237.925781 239.28125 240.59375 C 240.105469 243.265625 241.265625 245.660156 242.773438 247.648438 C 244.246094 249.632812 245.957031 251.34375 247.875 252.75 C 249.722656 254.085938 251.675781 255.28125 253.761719 256.242188 C 255.75 257.199219 257.871094 258.019531 259.996094 258.738281 C 262.015625 259.425781 263.964844 260.074219 265.882812 260.761719 C 267.699219 261.410156 269.441406 262.0625 271.085938 262.78125 C 272.558594 263.429688 273.824219 264.183594 274.921875 265.039062 C 275.878906 265.828125 276.632812 266.71875 277.179688 267.777344 C 277.695312 268.769531 277.96875 270.070312 277.96875 271.578125 C 277.96875 272.503906 277.832031 273.359375 277.488281 274.214844 C 277.214844 275 276.769531 275.6875 276.085938 276.304688 C 275.398438 276.953125 274.476562 277.5 273.242188 277.945312 C 271.976562 278.425781 270.332031 278.628906 268.382812 278.628906 C 266.671875 278.628906 265.128906 278.390625 263.863281 277.878906 C 262.628906 277.398438 261.601562 276.714844 260.78125 275.824219 C 259.925781 274.933594 259.308594 273.871094 258.863281 272.605469 C 258.386719 271.269531 258.144531 269.765625 258.144531 268.085938 C 258.144531 267.847656 258.144531 267.539062 258.179688 267.195312 C 258.214844 266.613281 258.25 266.273438 258.25 266.101562 L 258.25 263.191406 L 236.472656 263.191406 L 236.472656 266.101562 C 236.472656 266.375 236.441406 266.71875 236.441406 267.09375 C 236.40625 267.675781 236.371094 268.257812 236.371094 268.804688 C 236.371094 273.5625 237.226562 277.808594 238.941406 281.472656 C 240.652344 285.136719 243.011719 288.25 245.921875 290.714844 C 248.800781 293.285156 252.1875 295.132812 255.988281 296.363281 Z M 255.988281 296.363281 " clip-rule="nonzero"/></clipPath></defs><g clip-path="url(#aba205c8c0)"><g clip-path="url(#b2901c117b)"><path fill="#ff914d" d="M 124.535156 85.855469 L 198.484375 85.855469 L 198.484375 179.316406 L 124.535156 179.316406 Z M 124.535156 85.855469 " fill-opacity="1" fill-rule="nonzero"/></g></g><g clip-path="url(#519dbef7e6)"><g clip-path="url(#81352b5d92)"><path fill="#ff914d" d="M 45.070312 85.855469 L 118.652344 85.855469 L 118.652344 179.246094 L 45.070312 179.246094 Z M 45.070312 85.855469 " fill-opacity="1" fill-rule="nonzero"/></g></g><g clip-path="url(#3726b4a2a9)"><path fill="#ff914d" d="M 278.152344 85.855469 L 339 85.855469 L 339 179.246094 L 278.152344 179.246094 Z M 278.152344 85.855469 " fill-opacity="1" fill-rule="nonzero"/></g><g clip-path="url(#60a5df35f9)"><g clip-path="url(#d014f8cb7b)"><path fill="#ff914d" d="M 204.550781 85.855469 L 272.117188 85.855469 L 272.117188 179.246094 L 204.550781 179.246094 Z M 204.550781 85.855469 " fill-opacity="1" fill-rule="nonzero"/></g></g><g clip-path="url(#08f1b6f48f)"><g clip-path="url(#80f9ea377f)"><path fill="#ff914d" d="M 84.496094 204.683594 L 147.464844 204.683594 L 147.464844 298.074219 L 84.496094 298.074219 Z M 84.496094 204.683594 " fill-opacity="1" fill-rule="nonzero"/></g></g><g clip-path="url(#6c46da9430)"><g clip-path="url(#d3c4e079c0)"><path fill="#ff914d" d="M 154.855469 204.683594 L 228.804688 204.683594 L 228.804688 298.144531 L 154.855469 298.144531 Z M 154.855469 204.683594 " fill-opacity="1" fill-rule="nonzero"/></g></g><g clip-path="url(#0e2369d377)"><g clip-path="url(#0fd3e62867)"><path fill="#ff914d" d="M 236.371094 204.683594 L 299.363281 204.683594 L 299.363281 298.144531 L 236.371094 298.144531 Z M 236.371094 204.683594 " fill-opacity="1" fill-rule="nonzero"/></g></g></svg>